<?xml version="1.0" standalone="no"?><!DOCTYPE svg PUBLIC "-//W3C//DTD SVG 1.1//EN" "http://www.w3.org/Graphics/SVG/1.1/DTD/svg11.dtd"><svg t="1590588110520" class="icon" viewBox="0 0 1024 1024" version="1.1" xmlns="http://www.w3.org/2000/svg" p-id="2007" xmlns:xlink="http://www.w3.org/1999/xlink" width="128" height="128"><defs><style type="text/css"></style></defs><path d="M1024 992a32 32 0 0 0-32-32H32a32 32 0 0 0 0 64h960a32 32 0 0 0 32-32zM96 896h192a32 32 0 0 0 32-32V32a32 32 0 0 0-32-32H96a32 32 0 0 0-32 32v832a32 32 0 0 0 32 32zM128 64h128v768H128z" fill="#211B13" p-id="2008"></path><path d="M416 256a32 32 0 0 0-32 32v576a32 32 0 0 0 32 32h192a32 32 0 0 0 32-32V288a32 32 0 0 0-32-32z m160 576h-128V320h128z" fill="#FFB243" p-id="2009"></path><path d="M928 320a32 32 0 0 0 32-32v-128a32 32 0 0 0-32-32H736a32 32 0 0 0-32 32v704a32 32 0 0 0 32 32h192a32 32 0 0 0 32-32V480a32 32 0 0 0-64 0v352h-128V192h128v96a32 32 0 0 0 32 32z" fill="#211B13" p-id="2010"></path></svg>