<?xml version="1.0" standalone="no"?><!DOCTYPE svg PUBLIC "-//W3C//DTD SVG 1.1//EN" "http://www.w3.org/Graphics/SVG/1.1/DTD/svg11.dtd"><svg t="1590588100267" class="icon" viewBox="0 0 1024 1024" version="1.1" xmlns="http://www.w3.org/2000/svg" p-id="1883" xmlns:xlink="http://www.w3.org/1999/xlink" width="128" height="128"><defs><style type="text/css"></style></defs><path d="M135.988738 792.707023a463.066479 463.066479 0 0 0 508.556233 99.789145A32.035038 32.035038 0 0 0 619.717816 832.910996a400.437979 400.437979 0 1 1 128.140154-86.014077 32.035038 32.035038 0 0 0 0 45.329579 18.420147 18.420147 0 0 1 5.125606 5.125606l216.556859 217.19756a32.035038 32.035038 0 0 0 45.329579-45.32958L814.8112 768.84092A464.508056 464.508056 0 0 0 135.988738 135.828562a464.508056 464.508056 0 0 0 0 656.718286z" fill="#211B13" p-id="1884"></path><path d="M474.759268 181.798842a32.035038 32.035038 0 0 0 0 64.070077 216.556859 216.556859 0 0 1 216.236509 216.236509 32.035038 32.035038 0 1 0 64.070076 0 280.626936 280.626936 0 0 0-280.306585-280.306586z" fill="#FFB243" p-id="1885"></path></svg>