<?xml version="1.0" standalone="no"?><!DOCTYPE svg PUBLIC "-//W3C//DTD SVG 1.1//EN" "http://www.w3.org/Graphics/SVG/1.1/DTD/svg11.dtd"><svg t="1590587941221" class="icon" viewBox="0 0 1024 1024" version="1.1" xmlns="http://www.w3.org/2000/svg" p-id="1695" width="128" height="128" xmlns:xlink="http://www.w3.org/1999/xlink"><defs><style type="text/css"></style></defs><path d="M987.428571 365.714286a36.571429 36.571429 0 0 0 36.571429-36.571429V109.714286a109.714286 109.714286 0 0 0-109.714286-109.714286H109.714286a109.714286 109.714286 0 0 0-109.714286 109.714286v804.571428a109.714286 109.714286 0 0 0 109.714286 109.714286h804.571428a109.714286 109.714286 0 0 0 109.714286-109.714286V548.571429a36.571429 36.571429 0 0 0-73.142857 0v365.714285a36.571429 36.571429 0 0 1-36.571429 36.571429H109.714286a36.571429 36.571429 0 0 1-36.571429-36.571429V292.571429h877.714286v36.571428a36.571429 36.571429 0 0 0 36.571428 36.571429zM73.142857 219.428571V109.714286a36.571429 36.571429 0 0 1 36.571429-36.571429h804.571428a36.571429 36.571429 0 0 1 36.571429 36.571429v109.714285z" fill="#211B13" p-id="1696"></path><path d="M632.502857 714.422857a36.571429 36.571429 0 0 0 51.748572 0l103.497142-103.497143a36.571429 36.571429 0 0 0 0-51.748571l-103.497142-103.497143a36.571429 36.571429 0 0 0-51.748572 51.748571L673.462857 548.571429H256a36.571429 36.571429 0 0 0 0 73.142857h417.462857l-40.96 40.96a36.571429 36.571429 0 0 0 0 51.748571z" fill="#FFB243" p-id="1697"></path></svg>